<svg xmlns="http://www.w3.org/2000/svg" version="1.1" xmlns:xlink="http://www.w3.org/1999/xlink" xmlns:svgjs="http://svgjs.dev/svgjs" width="1500" height="371" viewBox="0 0 1500 371"><g transform="matrix(1,0,0,1,-0.9090909090909918,0.21392997340009856)"><svg viewBox="0 0 396 98" data-background-color="#ffffff" preserveAspectRatio="xMidYMid meet" height="371" width="1500" xmlns="http://www.w3.org/2000/svg" xmlns:xlink="http://www.w3.org/1999/xlink"><g id="tight-bounds" transform="matrix(1,0,0,1,0.2400000000000091,-0.056509804294364585)"><svg viewBox="0 0 395.52 98.11301960858874" height="98.11301960858874" width="395.52"><g><svg viewBox="0 0 640.6693438672162 158.92496940095538" height="98.11301960858874" width="395.52"><g><rect width="6.60873147241293" height="115.57134171342989" x="412.82034416862024" y="21.676813843762744" fill="#0c0a0f" opacity="1" stroke-width="0" stroke="transparent" fill-opacity="1" class="rect-qz-0" data-fill-palette-color="primary" rx="1%" id="qz-0" data-palette-color="#0c0a0f"></rect></g><g transform="matrix(1,0,0,1,0,21.964304743547387)"><svg viewBox="0 0 395.52 114.9963599138606" height="114.9963599138606" width="395.52"><g id="textblocktransform"><svg viewBox="0 0 395.52 114.9963599138606" height="114.9963599138606" width="395.52" id="textblock"><g><svg viewBox="0 0 395.52 73.28294349540079" height="73.28294349540079" width="395.52"><g transform="matrix(1,0,0,1,0,0)"><svg width="395.52" viewBox="0 -46.5 288.22 49.35" height="73.28294349540079" data-palette-color="#0c0a0f"><g class="wordmark-text-0" data-fill-palette-color="primary" id="text-0"><path d="M21.45-16.35L21.45-16.35Q21.85-16.35 22.23-15.58 22.6-14.8 22.6-14.1L22.6-14.1Q22.6-13.5 22.43-12.9 22.25-12.3 22.1-12L22.1-12 21.9-11.65Q19.45-6.9 14.63-2.9 9.8 1.1 4.95 1.1L4.95 1.1Q2.4 1.1 1.2-0.73 0-2.55 0-5.4L0-5.4Q0-10.4 2.88-15.63 5.75-20.85 10.15-25.15L10.15-25.15Q8.25-25.35 6.6-26.6 4.95-27.85 4.95-29.65L4.95-29.65Q4.95-32.4 9.45-35.1 13.95-37.8 20.6-37.8L20.6-37.8Q22.7-37.8 25.93-37.27 29.15-36.75 30.9-36.75L30.9-36.75Q33.7-36.75 34.9-37.65L34.9-37.65Q35.1-37.7 35.25-37.7L35.25-37.7Q35.5-37.7 35.5-37.5 35.5-37.3 35.3-36.95L35.3-36.95Q34.3-35.35 32.6-34.35 30.9-33.35 28.85-33.35L28.85-33.35Q26.65-33.35 22.38-34.5 18.1-35.65 15.75-35.65L15.75-35.65Q13.1-35.65 10.7-34.15 8.3-32.65 8.3-30.05L8.3-30.05Q8.3-28.95 8.9-27.9 9.5-26.85 10.1-26.35L10.1-26.35 10.7-25.85 10.8-25.75Q16.65-31.3 21.3-32.35L21.3-32.35Q21.55-32.4 21.9-32.4L21.9-32.4Q22.4-32.4 22.4-32.1L22.4-32.1Q22.4-31.7 21.65-31.4L21.65-31.4Q20.25-30.85 17.65-28.55 15.05-26.25 12.15-22.88 9.25-19.5 7.13-14.83 5-10.15 5-5.8L5-5.8Q5-1.35 8.05-1.35L8.05-1.35Q10.25-1.35 12.38-2.78 14.5-4.2 16.13-6.5 17.75-8.8 18.95-11.15 20.15-13.5 20.95-15.9L20.95-15.9Q21.1-16.35 21.45-16.35ZM38.05-7.55L38.05-7.55Q40.15-9.65 43.6-13.6L43.6-13.6Q43.75-13.75 43.85-13.75 43.95-13.75 43.95-13.55L43.95-13.55Q43.95-12.6 43.2-11.7L43.2-11.7Q39.5-7.6 36.65-4.85L36.65-4.85Q30.65 0.7 28.75 0.7L28.75 0.7Q28 0.7 28-0.25L28-0.25Q28-2.05 30.05-5.73 32.1-9.4 34.12-12.58 36.15-15.75 36.15-16.3L36.15-16.3Q36.15-16.6 35.85-16.6L35.85-16.6Q34.65-16.6 31.3-12.9 27.95-9.2 25.65-6.25L25.65-6.25Q23.1-3.05 21.22-1.15 19.35 0.75 18.75 1L18.75 1 18.1 1.3Q17.65 1.3 17.65 0.8L17.65 0.8Q17.65 0 18.55-2.05 19.45-4.1 20.35-5.75L20.35-5.75 21.25-7.4 29.05-21.4Q38.25-37.65 43.55-44.5L43.55-44.5Q45.05-46.5 45.65-46.5L45.65-46.5Q45.95-46.5 45.95-46.1L45.95-46.1Q45.95-45.05 44.35-41.8L44.35-41.8Q36.5-27.65 33.45-22.2L33.45-22.2Q31.6-18.9 30.1-16.32 28.6-13.75 27.97-12.7 27.35-11.65 26.9-10.88 26.45-10.1 26.2-9.55L26.2-9.55Q26.15-9.4 26.15-9.25L26.15-9.25Q26.15-9 26.25-9 26.35-9 26.65-9.3L26.65-9.3Q37.85-21.75 41.35-21.75L41.35-21.75Q42.05-21.75 42.05-21.05L42.05-21.05Q42.05-20.85 41.85-20.18 41.65-19.5 40.7-17.45 39.75-15.4 38.2-12.9L38.2-12.9Q37.25-11.5 35.8-8.9 34.35-6.3 34.35-5.5L34.35-5.5Q34.35-5.05 34.8-5.05L34.8-5.05Q34.95-5.05 35.22-5.18 35.5-5.3 35.85-5.6 36.2-5.9 36.47-6.15 36.75-6.4 37.27-6.88 37.8-7.35 38.05-7.55ZM52.59-16.95L52.59-16.95Q53.2-18.2 53.2-19.15L53.2-19.15Q53.2-19.95 52.7-19.95L52.7-19.95Q52.39-19.95 52.02-19.78 51.64-19.6 51.45-19.4L51.45-19.4 51.2-19.2Q49.64-17.85 47.32-14.28 44.99-10.7 44.99-9.7L44.99-9.7Q44.99-9.5 45.09-9.5L45.09-9.5Q45.39-9.5 46.42-10 47.45-10.5 49.37-12.35 51.3-14.2 52.59-16.95ZM50.34-5.5L50.34-5.5Q52.99-7.95 57.95-13.6L57.95-13.6Q58.09-13.75 58.2-13.75 58.3-13.75 58.3-13.55L58.3-13.55Q58.3-12.6 57.55-11.7L57.55-11.7Q53.84-7.6 50.99-4.85L50.99-4.85Q48.89-2.75 45.99-0.83 43.09 1.1 41.2 1.1L41.2 1.1Q38.89 1.1 38.89-2.1L38.89-2.1Q38.89-7.4 42.82-13.2 46.74-19 51.89-21.05L51.89-21.05Q54.05-21.95 55.8-21.95L55.8-21.95Q57.75-21.95 57.75-20.4L57.75-20.4Q57.75-17.5 53.64-13.75 49.55-10 44.45-8.05L44.45-8.05Q44.24-8 44.09-7.7L44.09-7.7Q43.34-5.65 43.34-4.05L43.34-4.05Q43.34-2.25 44.7-2.25L44.7-2.25Q46.84-2.25 50.34-5.5ZM67.74-3.15L67.74-3.15Q63.59 0.65 62.04 0.65L62.04 0.65Q61.34 0.65 61.34-0.15L61.34-0.15Q61.34-1.15 62.22-3.2 63.09-5.25 63.99-6.8L63.99-6.8 64.89-8.35Q65.09-8.7 65.09-8.8 65.09-8.9 64.99-8.9L64.99-8.9Q64.79-8.9 64.24-8.35L64.24-8.35Q62.74-6.7 60.82-4.83 58.89-2.95 57.69-1.9L57.69-1.9 56.54-0.9Q54.59 0.6 53.54 0.6L53.54 0.6Q52.44 0.6 52.44-1.1L52.44-1.1Q52.44-1.95 52.92-3.7 53.39-5.45 53.64-6.05L53.64-6.05Q54.79-8.85 56.52-11.5 58.24-14.15 60.59-16.57 62.94-19 66.07-20.5 69.19-22 72.54-22L72.54-22Q75.34-22 75.34-21.15L75.34-21.15Q75.34-20.65 74.09-20.65L74.09-20.65Q69.49-20.65 65.47-16.73 61.44-12.8 58.94-7.7L58.94-7.7Q58.24-6.3 58.24-5.35L58.24-5.35Q58.24-4.8 58.59-4.8L58.59-4.8Q59.19-4.8 60.14-5.65L60.14-5.65Q60.74-6.2 61.77-7.1 62.79-8 65.09-10.55 67.39-13.1 68.74-15.3L68.74-15.3Q68.94-15.7 69.37-16.25 69.79-16.8 70.99-17.73 72.19-18.65 73.39-18.65L73.39-18.65Q74.04-18.65 74.04-18.3L74.04-18.3Q74.04-18.2 73.89-17.95L73.89-17.95Q73.69-17.55 72.77-15.95 71.84-14.35 71.04-12.93 70.24-11.5 69.34-9.83 68.44-8.15 67.92-6.95 67.39-5.75 67.39-5.35L67.39-5.35Q67.39-5.05 67.64-5.05L67.64-5.05Q68.39-5.05 71.29-7.95L71.29-7.95Q73.49-10.25 76.44-13.6L76.44-13.6Q76.59-13.75 76.69-13.75 76.79-13.75 76.79-13.55L76.79-13.55Q76.79-12.6 76.04-11.7L76.04-11.7Q71.14-6.25 67.74-3.15ZM80.39-7.55L80.39-7.55Q82.49-9.65 85.94-13.6L85.94-13.6Q86.09-13.75 86.19-13.75 86.29-13.75 86.29-13.55L86.29-13.55Q86.29-12.6 85.54-11.7L85.54-11.7Q81.84-7.6 78.99-4.85L78.99-4.85Q72.99 0.95 71.04 0.95L71.04 0.95Q70.34 0.95 70.34 0.05L70.34 0.05Q70.34-1 71.14-3.1 71.94-5.2 72.74-6.8L72.74-6.8 73.54-8.35Q74.69-10.4 77.34-15.35 79.99-20.3 82.47-24.7 84.94-29.1 87.14-32.65L87.14-32.65 83.19-32.65Q82.69-32.65 82.69-32.9 82.69-33.15 83.09-33.4 83.49-33.65 83.94-33.65L83.94-33.65Q85.04-33.65 87.79-33.7L87.79-33.7Q90.24-37.55 91.99-39.8L91.99-39.8Q93.54-41.75 94.14-41.75L94.14-41.75Q94.49-41.75 94.49-41.3L94.49-41.3Q94.49-40.25 92.59-36.8L92.59-36.8 90.89-33.7 96.04-33.7Q96.49-33.7 96.49-33.45L96.49-33.45Q96.49-32.65 95.04-32.65L95.04-32.65 90.34-32.65Q78.79-10.75 78.19-9.7L78.19-9.7Q76.09-5.85 76.09-4.7L76.09-4.7Q76.09-4.35 76.34-4.35L76.34-4.35Q77.04-4.35 80.39-7.55ZM93.74-10.35L93.74-10.35Q93.34-10.35 93.34-10.65L93.34-10.65Q93.34-10.8 93.49-11.05L93.49-11.05Q96.44-15.65 96.44-17.35L96.44-17.35Q96.44-17.8 96.09-17.8L96.09-17.8Q94.59-17.8 89.04-11L89.04-11Q87.39-8.9 85.96-6.65 84.54-4.4 83.99-3.2L83.99-3.2 83.39-2.05Q82.79-0.85 81.54 0.18 80.29 1.2 78.94 1.2L78.94 1.2Q78.24 1.2 78.24 0.85L78.24 0.85Q78.24 0.55 78.66-0.4 79.09-1.35 79.69-2.5 80.29-3.65 80.89-4.75 81.49-5.85 81.89-6.6L81.89-6.6 82.34-7.35 87.59-16.5Q90.64-22.25 93.99-22.25L93.99-22.25Q94.44-22.25 94.44-21.9L94.44-21.9Q94.44-21.45 92.26-18.18 90.09-14.9 89.74-14L89.74-14Q89.64-13.7 89.64-13.65L89.64-13.65Q89.64-13.55 89.74-13.55 89.84-13.55 90.09-13.8L90.09-13.8Q93.84-18.05 98.04-21.35L98.04-21.35Q98.29-21.6 99.14-22.08 99.99-22.55 100.64-22.55L100.64-22.55Q101.59-22.55 101.59-20.9L101.59-20.9Q101.59-19.1 100.39-16.6 99.19-14.1 97.14-12.2L97.14-12.2 96.94-12Q96.74-11.85 96.51-11.68 96.29-11.5 95.94-11.25 95.59-11 95.24-10.83 94.89-10.65 94.49-10.5 94.09-10.35 93.74-10.35ZM102.69-4.85L102.69-4.85Q96.83 0.65 95.19 0.65L95.19 0.65Q94.33 0.65 94.33-0.5 94.33-1.65 95.23-3.85 96.13-6.05 97.03-7.7L97.03-7.7 97.94-9.3Q101.73-15.95 103.69-18.85L103.69-18.85Q104.53-20.1 105.86-20.98 107.19-21.85 108.33-21.85L108.33-21.85Q108.73-21.85 108.73-21.5L108.73-21.5Q108.73-21.25 108.38-20.55L108.38-20.55Q107.78-19.45 105.44-15.3 103.08-11.15 102.63-10.3L102.63-10.3Q100.58-6.7 100.58-5.5L100.58-5.5Q100.58-5.05 100.88-5.05L100.88-5.05Q101.38-5.05 104.08-7.55L104.08-7.55Q106.19-9.65 109.63-13.6L109.63-13.6Q109.78-13.75 109.88-13.75 109.98-13.75 109.98-13.55L109.98-13.55Q109.98-12.6 109.23-11.7L109.23-11.7Q105.53-7.6 102.69-4.85ZM109.33-24.7L109.33-24.7Q108.08-24.7 108.08-26.2L108.08-26.2Q108.08-27.6 109.13-29.03 110.19-30.45 111.44-30.45L111.44-30.45Q112.94-30.45 112.94-28.75L112.94-28.75Q112.94-27.35 111.78-26.03 110.63-24.7 109.33-24.7ZM117.08-4.85L117.08-4.85Q114.83-2.7 112.01-0.83 109.18 1.05 107.23 1.05L107.23 1.05Q104.93 1.05 104.93-2.5L104.93-2.5Q104.93-6.25 107.58-10.83 110.23-15.4 114.31-18.65 118.38-21.9 122.03-21.9L122.03-21.9Q123.98-21.9 123.98-20.45L123.98-20.45Q123.98-17.95 120.73-14.8L120.73-14.8Q120.43-14.5 119.43-13.75 118.43-13 118.03-13L118.03-13Q117.78-13 117.78-13.25L117.78-13.25 117.93-13.7Q119.93-17.25 119.93-19.1L119.93-19.1Q119.93-20.1 119.28-20.1L119.28-20.1Q117.73-20.1 115.36-17.07 112.98-14.05 111.23-10.18 109.48-6.3 109.48-4.05L109.48-4.05Q109.48-2.25 110.78-2.25L110.78-2.25Q113.03-2.25 116.43-5.5L116.43-5.5Q119.08-7.95 124.03-13.6L124.03-13.6Q124.18-13.75 124.28-13.75 124.38-13.75 124.38-13.55L124.38-13.55Q124.38-12.6 123.63-11.7L123.63-11.7Q119.93-7.6 117.08-4.85ZM133.83-3.15L133.83-3.15Q129.68 0.65 128.13 0.65L128.13 0.65Q127.43 0.65 127.43-0.15L127.43-0.15Q127.43-1.15 128.31-3.2 129.18-5.25 130.08-6.8L130.08-6.8 130.98-8.35Q131.18-8.7 131.18-8.8 131.18-8.9 131.08-8.9L131.08-8.9Q130.88-8.9 130.33-8.35L130.33-8.35Q128.83-6.7 126.91-4.83 124.98-2.95 123.78-1.9L123.78-1.9 122.63-0.9Q120.68 0.6 119.63 0.6L119.63 0.6Q118.53 0.6 118.53-1.1L118.53-1.1Q118.53-1.95 119-3.7 119.48-5.45 119.73-6.05L119.73-6.05Q120.88-8.85 122.61-11.5 124.33-14.15 126.68-16.57 129.03-19 132.16-20.5 135.28-22 138.63-22L138.63-22Q141.43-22 141.43-21.15L141.43-21.15Q141.43-20.65 140.18-20.65L140.18-20.65Q135.58-20.65 131.56-16.73 127.53-12.8 125.03-7.7L125.03-7.7Q124.33-6.3 124.33-5.35L124.33-5.35Q124.33-4.8 124.68-4.8L124.68-4.8Q125.28-4.8 126.23-5.65L126.23-5.65Q126.83-6.2 127.86-7.1 128.88-8 131.18-10.55 133.48-13.1 134.83-15.3L134.83-15.3Q135.03-15.7 135.46-16.25 135.88-16.8 137.08-17.73 138.28-18.65 139.48-18.65L139.48-18.65Q140.13-18.65 140.13-18.3L140.13-18.3Q140.13-18.2 139.98-17.95L139.98-17.95Q139.78-17.55 138.86-15.95 137.93-14.35 137.13-12.93 136.33-11.5 135.43-9.83 134.53-8.15 134-6.95 133.48-5.75 133.48-5.35L133.48-5.35Q133.48-5.05 133.73-5.05L133.73-5.05Q134.48-5.05 137.38-7.95L137.38-7.95Q139.58-10.25 142.53-13.6L142.53-13.6Q142.68-13.75 142.78-13.75 142.88-13.75 142.88-13.55L142.88-13.55Q142.88-12.6 142.13-11.7L142.13-11.7Q137.23-6.25 133.83-3.15ZM152.33-24.35L152.33-24.35Q155.88-26.85 158.7-30.03 161.53-33.2 163-35.88 164.48-38.55 165.23-40.5 165.98-42.45 165.98-43.3L165.98-43.3Q165.98-43.8 165.63-43.8L165.63-43.8Q164.93-43.8 163.93-42.8L163.93-42.8Q162.03-40.9 159.63-37.3 157.23-33.7 155.75-31.13 154.28-28.55 151.93-24.25L151.93-24.25Q152.13-24.25 152.33-24.35ZM146.98-7.55L146.98-7.55Q149.08-9.65 152.53-13.6L152.53-13.6Q152.68-13.75 152.78-13.75 152.88-13.75 152.88-13.55L152.88-13.55Q152.88-12.6 152.13-11.7L152.13-11.7Q148.43-7.6 145.58-4.85L145.58-4.85Q139.33 1.05 137.63 1.05L137.63 1.05Q136.88 1.05 136.88 0L136.88 0Q136.88-0.55 137-1.2 137.13-1.85 137.43-2.63 137.73-3.4 137.95-3.93 138.18-4.45 138.6-5.43 139.03-6.4 139.18-6.75L139.18-6.75Q140.58-9.9 147.78-23.35L147.78-23.35Q157.63-41.3 165.88-45.4L165.88-45.4Q167.08-46 168.28-46L168.28-46Q169.68-46 169.68-44.7L169.68-44.7Q169.68-41.7 167.63-38.13 165.58-34.55 162.63-31.55 159.68-28.55 156.85-26.3 154.03-24.05 151.98-22.9L151.98-22.9Q151.68-22.8 151.43-22.45L151.43-22.45Q149.23-18.9 147.13-14.83 145.03-10.75 143.98-8.4L143.98-8.4 142.98-6.1Q142.73-5.35 142.73-5.1L142.73-5.1Q142.73-4.65 143.08-4.65L143.08-4.65Q144.08-4.65 146.98-7.55Z" fill="#0c0a0f" data-fill-palette-color="primary"></path><path d="M190.88-16.15L190.88-16.15Q190.53-15.5 186.68-7.7L186.68-7.7Q184.13-2.5 181.55 0.18 178.98 2.85 177.63 2.85L177.63 2.85Q177.03 2.85 177.03 2.3L177.03 2.3 177.18 1.7Q177.73 0.2 180.6-5.35 183.48-10.9 185.98-15.2L185.98-15.2Q188.33-19.3 190.58-23.13 192.83-26.95 193.93-28.75L193.93-28.75 195.03-30.55Q195.13-30.7 195.28-30.95 195.43-31.2 195.95-31.85 196.48-32.5 197.03-32.98 197.58-33.45 198.33-33.85 199.08-34.25 199.78-34.25L199.78-34.25Q200.43-34.25 200.43-33.9L200.43-33.9Q200.43-33.45 199.83-32.6L199.83-32.6Q196.08-26.2 191.83-18.05L191.83-18.05Q191.78-17.95 191.78-17.85L191.78-17.85Q191.78-17.7 191.98-17.7L191.98-17.7Q195.13-17.7 197.8-18.9 200.48-20.1 202.15-22.03 203.83-23.95 204.75-26.15 205.68-28.35 205.68-30.5L205.68-30.5Q205.68-33.55 203.38-35.1 201.08-36.65 197.98-36.65L197.98-36.65Q195.63-36.65 193.4-35.95 191.18-35.25 189.5-33.55 187.83-31.85 187.83-29.5L187.83-29.5Q187.83-28.1 188.58-26.8L188.58-26.8Q188.83-26.3 188.83-26.1L188.83-26.1Q188.83-25.8 188.43-25.8L188.43-25.8Q188.33-25.8 188.03-25.9L188.03-25.9Q187.88-25.95 187.63-26.1 187.38-26.25 186.73-26.7 186.08-27.15 185.58-27.65 185.08-28.15 184.68-28.98 184.28-29.8 184.28-30.65L184.28-30.65Q184.28-33.75 188.1-35.85 191.93-37.95 196.78-37.95L196.78-37.95Q199.13-37.95 201.25-37.55 203.38-37.15 205.4-36.27 207.43-35.4 208.63-33.75 209.83-32.1 209.83-29.85L209.83-29.85Q209.83-26.5 208.1-23.83 206.38-21.15 203.6-19.58 200.83-18 197.68-17.18 194.53-16.35 191.33-16.35L191.33-16.35Q191.28-16.4 191.18-16.4L191.18-16.4Q190.98-16.4 190.88-16.15ZM218.18-17.6L218.18-17.6Q218.63-17.5 218.63-17.3L218.63-17.3Q218.63-17 218.23-16.6L218.23-16.6Q217.68-16.05 216.6-15.15 215.52-14.25 215.32-14.05L215.32-14.05 214.63-13.1Q213.57-10.15 211.4-6.98 209.23-3.8 206.1-1.4 202.98 1 200.13 1L200.13 1Q196.57 1 196.57-3.35L196.57-3.35Q196.57-7.2 199.07-11.68 201.57-16.15 205.55-19.33 209.52-22.5 213.38-22.5L213.38-22.5Q216.18-22.5 216.18-20.3L216.18-20.3Q216.18-19.1 214.98-17.05L214.98-17.05Q214.93-17 214.93-16.9 214.93-16.8 215.02-16.8L215.02-16.8Q216.88-17.55 218.18-17.6ZM213.43-16.4L213.43-16.4Q213.82-18.15 213.82-19.1L213.82-19.1Q213.82-21.2 212.43-21.2L212.43-21.2Q210.48-21.2 207.57-17.6 204.67-14 202.6-9.5 200.52-5 200.52-2.4L200.52-2.4Q200.52-0.5 201.88-0.5L201.88-0.5Q203.98-0.5 206.9-4.7 209.82-8.9 210.43-13.15L210.43-13.15Q210.38-13.25 210.38-13.45L210.38-13.45Q210.38-14.9 212.98-16.05L212.98-16.05Q213.38-16.2 213.43-16.4ZM226.27-10.35L226.27-10.35Q225.87-10.35 225.87-10.65L225.87-10.65Q225.87-10.8 226.02-11.05L226.02-11.05Q228.97-15.65 228.97-17.35L228.97-17.35Q228.97-17.8 228.62-17.8L228.62-17.8Q227.12-17.8 221.57-11L221.57-11Q219.92-8.9 218.5-6.65 217.07-4.4 216.52-3.2L216.52-3.2 215.92-2.05Q215.32-0.85 214.07 0.18 212.82 1.2 211.47 1.2L211.47 1.2Q210.77 1.2 210.77 0.85L210.77 0.85Q210.77 0.55 211.2-0.4 211.62-1.35 212.22-2.5 212.82-3.65 213.42-4.75 214.02-5.85 214.42-6.6L214.42-6.6 214.87-7.35 220.12-16.5Q223.17-22.25 226.52-22.25L226.52-22.25Q226.97-22.25 226.97-21.9L226.97-21.9Q226.97-21.45 224.8-18.18 222.62-14.9 222.27-14L222.27-14Q222.17-13.7 222.17-13.65L222.17-13.65Q222.17-13.55 222.27-13.55 222.37-13.55 222.62-13.8L222.62-13.8Q226.37-18.05 230.57-21.35L230.57-21.35Q230.82-21.6 231.67-22.08 232.52-22.55 233.17-22.55L233.17-22.55Q234.12-22.55 234.12-20.9L234.12-20.9Q234.12-19.1 232.92-16.6 231.72-14.1 229.67-12.2L229.67-12.2 229.47-12Q229.27-11.85 229.05-11.68 228.82-11.5 228.47-11.25 228.12-11 227.77-10.83 227.42-10.65 227.02-10.5 226.62-10.35 226.27-10.35ZM237.02-7.55L237.02-7.55Q239.12-9.65 242.57-13.6L242.57-13.6Q242.72-13.75 242.82-13.75 242.92-13.75 242.92-13.55L242.92-13.55Q242.92-12.6 242.17-11.7L242.17-11.7Q238.47-7.6 235.62-4.85L235.62-4.85Q229.62 0.95 227.67 0.95L227.67 0.95Q226.97 0.95 226.97 0.05L226.97 0.05Q226.97-1 227.77-3.1 228.57-5.2 229.37-6.8L229.37-6.8 230.17-8.35Q231.32-10.4 233.97-15.35 236.62-20.3 239.1-24.7 241.57-29.1 243.77-32.65L243.77-32.65 239.82-32.65Q239.32-32.65 239.32-32.9 239.32-33.15 239.72-33.4 240.12-33.65 240.57-33.65L240.57-33.65Q241.67-33.65 244.42-33.7L244.42-33.7Q246.87-37.55 248.62-39.8L248.62-39.8Q250.17-41.75 250.77-41.75L250.77-41.75Q251.12-41.75 251.12-41.3L251.12-41.3Q251.12-40.25 249.22-36.8L249.22-36.8 247.52-33.7 252.67-33.7Q253.12-33.7 253.12-33.45L253.12-33.45Q253.12-32.65 251.67-32.65L251.67-32.65 246.97-32.65Q235.42-10.75 234.82-9.7L234.82-9.7Q232.72-5.85 232.72-4.7L232.72-4.7Q232.72-4.35 232.97-4.35L232.97-4.35Q233.67-4.35 237.02-7.55ZM252.37-3.15L252.37-3.15Q248.22 0.65 246.67 0.65L246.67 0.65Q245.97 0.65 245.97-0.15L245.97-0.15Q245.97-1.15 246.84-3.2 247.72-5.25 248.62-6.8L248.62-6.8 249.52-8.35Q249.72-8.7 249.72-8.8 249.72-8.9 249.62-8.9L249.62-8.9Q249.42-8.9 248.87-8.35L248.87-8.35Q247.37-6.7 245.44-4.83 243.52-2.95 242.32-1.9L242.32-1.9 241.17-0.9Q239.22 0.6 238.17 0.6L238.17 0.6Q237.07 0.6 237.07-1.1L237.07-1.1Q237.07-1.95 237.54-3.7 238.02-5.45 238.27-6.05L238.27-6.05Q239.42-8.85 241.14-11.5 242.87-14.15 245.22-16.57 247.57-19 250.69-20.5 253.82-22 257.17-22L257.17-22Q259.97-22 259.97-21.15L259.97-21.15Q259.97-20.65 258.72-20.65L258.72-20.65Q254.12-20.65 250.09-16.73 246.07-12.8 243.57-7.7L243.57-7.7Q242.87-6.3 242.87-5.35L242.87-5.35Q242.87-4.8 243.22-4.8L243.22-4.8Q243.82-4.8 244.77-5.65L244.77-5.65Q245.37-6.2 246.39-7.1 247.42-8 249.72-10.55 252.02-13.1 253.37-15.3L253.37-15.3Q253.57-15.7 253.99-16.25 254.42-16.8 255.62-17.73 256.82-18.65 258.02-18.65L258.02-18.65Q258.67-18.65 258.67-18.3L258.67-18.3Q258.67-18.2 258.52-17.95L258.52-17.95Q258.32-17.55 257.39-15.95 256.47-14.35 255.67-12.93 254.87-11.5 253.97-9.83 253.07-8.15 252.54-6.95 252.02-5.75 252.02-5.35L252.02-5.35Q252.02-5.05 252.27-5.05L252.27-5.05Q253.02-5.05 255.92-7.95L255.92-7.95Q258.12-10.25 261.07-13.6L261.07-13.6Q261.22-13.75 261.32-13.75 261.42-13.75 261.42-13.55L261.42-13.55Q261.42-12.6 260.67-11.7L260.67-11.7Q255.77-6.25 252.37-3.15ZM270.87-24.35L270.87-24.35Q274.42-26.85 277.24-30.03 280.07-33.2 281.54-35.88 283.02-38.55 283.77-40.5 284.52-42.45 284.52-43.3L284.52-43.3Q284.52-43.8 284.17-43.8L284.17-43.8Q283.47-43.8 282.47-42.8L282.47-42.8Q280.57-40.9 278.17-37.3 275.77-33.7 274.29-31.13 272.82-28.55 270.47-24.25L270.47-24.25Q270.67-24.25 270.87-24.35ZM265.52-7.55L265.52-7.55Q267.62-9.65 271.07-13.6L271.07-13.6Q271.22-13.75 271.32-13.75 271.42-13.75 271.42-13.55L271.42-13.55Q271.42-12.6 270.67-11.7L270.67-11.7Q266.97-7.6 264.12-4.85L264.12-4.85Q257.87 1.05 256.17 1.05L256.17 1.05Q255.42 1.05 255.42 0L255.42 0Q255.42-0.55 255.54-1.2 255.67-1.85 255.97-2.63 256.27-3.4 256.49-3.93 256.72-4.45 257.14-5.43 257.57-6.4 257.72-6.75L257.72-6.75Q259.12-9.9 266.32-23.35L266.32-23.35Q276.17-41.3 284.42-45.4L284.42-45.4Q285.62-46 286.82-46L286.82-46Q288.22-46 288.22-44.7L288.22-44.7Q288.22-41.7 286.17-38.13 284.12-34.55 281.17-31.55 278.22-28.55 275.39-26.3 272.57-24.05 270.52-22.9L270.52-22.9Q270.22-22.8 269.97-22.45L269.97-22.45Q267.77-18.9 265.67-14.83 263.57-10.75 262.52-8.4L262.52-8.4 261.52-6.1Q261.27-5.35 261.27-5.1L261.27-5.1Q261.27-4.65 261.62-4.65L261.62-4.65Q262.62-4.65 265.52-7.55Z" fill="#f98d67" data-fill-palette-color="accent"></path></g></svg></g></svg></g><g transform="matrix(1,0,0,1,163.310208,90.58328766402101)"><svg viewBox="0 0 232.209792 24.413072249839573" height="24.413072249839573" width="232.209792"><g transform="matrix(1,0,0,1,0,0)"><svg width="232.209792" viewBox="0.35 -37.8 467.45 49.15" height="24.413072249839573" data-palette-color="#0c0a0f"><path d="M0.35-35.5L6.2-35 25.1-35 30.95-35.5 30.2-32.05 29.9-25.75 27.6-25.6 26.8-32.75 18.05-33.2 17.6-16.4 17.9-7 18.15-2.5 22-1.25 21.65 0.5 15.55 0 8.7 0.5 8.8-1.25 12.9-2.45 12.95-7.6 13.3-21.8 12.8-33.2 4.5-32.75 3.7-25.6 1.4-25.75 1.1-32.05 0.35-35.5ZM40.8-37.25L40.55-30.45 40.4-22.25 45.95-25.65 51.05-26 55.65-22.85 56.4-18.85 56.3-8.3 56.7-2.45 60.25-1.5 60 0.25 54.1 0 48 0.25 48.1-1.5 51.4-2.5 51.75-7.75 51.55-18.65 50.2-21.95 45.95-22.7 40.35-19.85 40.25-13.15 40.35-8.3 40.5-2.5 44.15-1.5 43.9 0.25 38 0 31.9 0.25 32-1.5 35.3-2.5 35.75-7.75 35.55-29.65 35.2-34.85 31.65-34.7 31.4-36.45 38.3-37.8 40.8-37.25ZM76.65-12.9L68-13.45 67.95-13 69.3-5.95 73.25-2.05 77.84-1.55 82.55-4.05 83.45-2.75 79.5 0.4 74.8 1 69.89-0.15 65.64-3.7 63.09-11.2 63.95-17.9 66.55-22.6 71.8-25.5 76.2-26.05 79.7-24.95 82.4-22.5 83.95-18.05 84-13.9 83.3-13.35 76.65-12.9ZM74.3-23.8L70.5-21.55 68.55-17.75 68.25-15.5 75.84-15.4 79.3-16.15 79-20.8 77.5-23.35 74.3-23.8ZM106.19-19.8L106.24-9.1 106.59-2.05 110.04-1.55 109.69 0.1 102.74 0.7 102.09-2.25 101.84-2.25 96.89 0.7 91.69 0.7 88.19-1.85 87.14-6.75 89.34-10.65 95.34-13.25 101.94-13.5 101.74-19.75 100.79-22.85 96.74-24 91.89-22.85 91.74-17.55 89.79-17.15 88.49-24 94.24-25.7 100.69-26 104.59-24.1 106.19-19.8ZM91.99-6.85L93.34-2.8 97.09-1.85 102.14-4.75 101.94-11.5 97.59-11.5 93.74-9.95 91.99-6.85ZM126.44-1.2L123.64 0.5 120.24 1 116.69-0.2 115.09-4.2 115.34-13.5 115.09-21.9 111.64-22.4 111.34-24.15 115.29-25.2 117.09-30.25 119.64-30.25 119.49-24.65 125.54-24.45 125.24-22.25 119.99-21.9 119.79-19.6 119.99-4.45 120.99-1.45 125.69-2.7 126.44-1.2ZM142.34-12.9L133.69-13.45 133.64-13 134.99-5.95 138.94-2.05 143.54-1.55 148.24-4.05 149.14-2.75 145.19 0.4 140.49 1 135.59-0.15 131.34-3.7 128.79-11.2 129.64-17.9 132.24-22.6 137.49-25.5 141.89-26.05 145.39-24.95 148.09-22.5 149.64-18.05 149.69-13.9 148.99-13.35 142.34-12.9ZM139.99-23.8L136.19-21.55 134.24-17.75 133.94-15.5 141.54-15.4 144.99-16.15 144.69-20.8 143.19-23.35 139.99-23.8ZM161.79-24.95L161.59-20.9 161.79-20.9 164.89-24.45 168.29-25.95 172.04-25 171.19-17.55 169.44-17.9 168.19-23.05 164.94-22 161.39-17.85 161.14-13.15 161.29-8.3 161.49-2.5 166.49-1.5 166.24 0.25 158.99 0 152.89 0.25 152.99-1.5 156.29-2.5 156.54-7.75 156.44-17.35 156.19-22.55 152.64-22.4 152.39-24.15 159.29-25.5 161.79-24.95ZM189.48-2.5L190.23-6.9 192.18-32.5 188.08-33.5 188.33-35.25 194.43-35 197.68-35 197.68-34 205.48-14.55 207.73-8 207.83-8 209.83-14.2 217.73-34 217.73-35 220.73-35 227.58-35.25 227.48-33.5 223.33-32.5 225.53-7.5 226.43-2.4 229.83-1.5 229.58 0.25 223.48 0 216.63 0.25 216.73-1.5 220.33-2.35 220.48-7 220.03-14.5 218.63-29.5 218.38-29.5 216.43-23.4 208.28-2.3 209.08 0 206.68 1 205.73-1.35 196.43-23.55 194.48-29.5 194.28-29.5 193.23-13.35 193.03-6.8 193.13-2.45 196.78-1.45 196.53 0.3 191.28 0 185.93 0.25 186.03-1.5 189.48-2.5ZM251.18-19.8L251.23-9.1 251.58-2.05 255.03-1.55 254.68 0.1 247.73 0.7 247.08-2.25 246.83-2.25 241.88 0.7 236.68 0.7 233.18-1.85 232.13-6.75 234.33-10.65 240.33-13.25 246.93-13.5 246.73-19.75 245.78-22.85 241.73-24 236.88-22.85 236.73-17.55 234.78-17.15 233.48-24 239.23-25.7 245.68-26 249.58-24.1 251.18-19.8ZM236.98-6.85L238.33-2.8 242.08-1.85 247.13-4.75 246.93-11.5 242.58-11.5 238.73-9.95 236.98-6.85ZM276.68 0.7L275.73-2.25 275.48-2.25 269.93 1 264.38 0.4 260.73-2.2 257.83-8.15 257.78-16.65 259.68-20.6 265.43-25.25 270.98-26 275.83-24.75 275.53-34.3 271.38-34.7 271.63-36.45 278.53-37.8 280.53-37.25 280.18-17.9 280.53-2.05 283.98-1.55 283.63 0.1 276.68 0.7ZM264.08-4.6L268.38-1.55 275.73-4.35 275.83-22 270.28-23.75 267.13-22.85 263.28-18.75 262.58-13 264.08-4.6ZM300.47-12.9L291.82-13.45 291.77-13 293.12-5.95 297.07-2.05 301.67-1.55 306.37-4.05 307.27-2.75 303.32 0.4 298.62 1 293.72-0.15 289.47-3.7 286.92-11.2 287.77-17.9 290.37-22.6 295.62-25.5 300.02-26.05 303.52-24.95 306.22-22.5 307.77-18.05 307.82-13.9 307.12-13.35 300.47-12.9ZM298.12-23.8L294.32-21.55 292.37-17.75 292.07-15.5 299.67-15.4 303.12-16.15 302.82-20.8 301.32-23.35 298.12-23.8ZM338.82 0.4L330.07 0 323.22 0.25 323.32-1.5 327.32-2.5 327.82-16.6 327.32-32.5 323.47-33.5 323.72-35.25 329.82-35 338.82-35.45 344.82-34.1 352.57-29.8 355.57-23.65 356.12-17.5 353.47-6.3 345.07-0.75 338.82 0.4ZM332.57-2.25L338.87-2.25 344.82-3.95 348.87-7.85 350.42-17.5 349.47-26.1 344.72-31.15 338.92-32.75 332.57-32.75 332.12-26.55 332.57-2.25ZM368.72-24.95L368.37-18.15 368.07-13.15 368.22-8.3 368.42-2.5 372.07-1.5 371.82 0.25 365.92 0 359.82 0.25 359.92-1.5 363.22-2.5 363.47-7.75 363.37-17.35 363.12-22.55 359.57-22.4 359.32-24.15 366.22-25.5 368.72-24.95ZM361.67-34.4L362.82-36.25 365.07-37.3 367.37-36.55 368.42-33.95 367.07-31.85 364.82-30.95 362.72-32.25 361.67-34.4ZM390.91-24.5L397.31-28.7 398.91-25.35 396.81-24.05 392.66-23.5 396.16-19.2 396.11-14.35 393.31-10.2 387.21-8.2 381.91-8.95 381.01-7.65 380.81-6.25 382.21-5.35 390.81-4 394.16-3.25 397.51-0.85 397.91 5.1 395.61 8.55 390.01 11.1 382.11 11.35 378.66 10.3 375.81 7.8 374.76 4.2 376.26-0.15 379.66-1.75 377.86-3.45 377.86-6.9 380.11-9.55 375.86-12.85 375.36-19.2 379.51-24 385.86-25.5 390.91-24.5ZM381.16-12.15L384.46-10.35 388.56-10.9 391.21-13.75 391.61-18.65 389.41-22.4 385.76-23.5 380.96-21.5 379.56-17.1 381.16-12.15ZM394.11 2.05L387.16-0.3 381.36-1.1 379.11 1.35 378.81 5.05 381.06 8.3 386.71 9.15 392.66 6.9 394.11 2.05ZM409.31-24.95L408.96-18.15 408.66-13.15 408.81-8.3 409.01-2.5 412.66-1.5 412.41 0.25 406.51 0 400.41 0.25 400.51-1.5 403.81-2.5 404.06-7.75 403.96-17.35 403.71-22.55 400.16-22.4 399.91-24.15 406.81-25.5 409.31-24.95ZM402.26-34.4L403.41-36.25 405.66-37.3 407.96-36.55 409.01-33.95 407.66-31.85 405.41-30.95 403.31-32.25 402.26-34.4ZM429.36-1.2L426.56 0.5 423.16 1 419.61-0.2 418.01-4.2 418.26-13.5 418.01-21.9 414.56-22.4 414.26-24.15 418.21-25.2 420.01-30.25 422.56-30.25 422.41-24.65 428.46-24.45 428.16-22.25 422.91-21.9 422.71-19.6 422.91-4.45 423.91-1.45 428.61-2.7 429.36-1.2ZM450.06-19.8L450.11-9.1 450.46-2.05 453.91-1.55 453.56 0.1 446.61 0.7 445.96-2.25 445.71-2.25 440.76 0.7 435.56 0.7 432.06-1.85 431.01-6.75 433.21-10.65 439.21-13.25 445.81-13.5 445.61-19.75 444.66-22.85 440.61-24 435.76-22.85 435.61-17.55 433.66-17.15 432.36-24 438.11-25.7 444.56-26 448.46-24.1 450.06-19.8ZM435.86-6.85L437.21-2.8 440.96-1.85 446.01-4.75 445.81-11.5 441.46-11.5 437.61-9.95 435.86-6.85ZM461.45 0L455.35 0.25 455.45-1.5 458.75-2.5 459-7.75 459.2-18.7 458.9-29.85 458.65-34.85 455.1-34.7 454.85-36.45 461.75-37.8 464.25-37.25 463.9-30.65 463.6-13.15 463.75-8.3 464.15-2.5 467.8-1.5 467.55 0.25 461.45 0Z" opacity="1" transform="matrix(1,0,0,1,0,0)" fill="#0c0a0f" class="slogan-text-1" data-fill-palette-color="secondary" id="text-1"></path></svg></g></svg></g></svg></g></svg></g><g transform="matrix(1,0,0,1,436.72941980965345,0)"><svg viewBox="0 0 203.9399240575628 158.92496940095538" height="158.92496940095538" width="203.9399240575628"><g><svg xmlns="http://www.w3.org/2000/svg" xmlns:xlink="http://www.w3.org/1999/xlink" version="1.1" x="0" y="0" viewBox="2.992947939759381 13.369397079684585 94.01333146846201 73.26209370701751" enable-background="new 0 0 100 100" xml:space="preserve" height="158.92496940095538" width="203.9399240575628" class="icon-icon-0" data-fill-palette-color="accent" id="icon-0"><path fill="#f98d67" d="M96.45 47.819c0.646-2.775 0.961-3.885-0.372-4.861-1.328-0.977-2.786-2.178-8.259-3.657-5.438-1.47-2.534-0.217-10.295-2.951-7.701-2.895-4.673-1.989-9.782-4.358-5.143-2.384-7.032-2.4-8.68-2.506-1.646-0.109-2.118 0.943-3.411 3.483-1.291 2.541-2.555 11.308-4.784 20.883-2.232 9.57-1.667 10.056 0.488 17.909 2.157 7.854 2.39 12.14 8.106 14.22 5.714 2.079 8.543-1.093 15.241-5.721 6.7-4.632 7.552-4.601 11.994-13.369C91.144 58.125 95.809 50.599 96.45 47.819zM64.87 72.644c-3.263-1.188-10.468 1.086-8.707-5.017 1.492-5.371 6.742 0.512 9.842 1.641 3.101 1.128 10.615-0.479 8.826 4.69C73.041 79.127 68.135 73.832 64.87 72.644zM76.652 54.818c1.521-0.368 6.572-0.578 7.93 2.332 0.934 2.006 0.236 3.413-1.522 3.421C81.303 60.577 78.781 57.35 76.652 54.818zM58.504 51.633c-1.344-1.136-0.973-2.665 1.031-3.599 2.914-1.357 6.645 2.05 7.573 3.311C63.851 51.916 59.844 52.766 58.504 51.633z" data-fill-palette-color="accent"></path><path fill="#f98d67" d="M44.501 16.875c-1.296-2.549-1.771-3.607-3.424-3.498-1.65 0.107-3.549 0.125-8.709 2.518-5.131 2.379-2.09 1.468-9.82 4.374-7.789 2.743-4.875 1.486-10.334 2.962-5.492 1.484-6.956 2.69-8.292 3.67-1.333 0.98-1.019 2.093-0.375 4.88 0.648 2.789 5.333 10.342 9.791 19.142 4.46 8.798 5.208 8.808 11.933 13.457 6.725 4.647 9.668 7.79 15.406 5.702s5.864-6.35 8.027-14.23c2.165-7.886 2.837-8.412 0.598-18.019C47.066 28.225 45.799 19.427 44.501 16.875zM15.373 43.144c1.354-2.37 1.733-3.198 4.054-4.001 2.321-0.805 4.65 0.057 5.047 1.059C20.9 42.783 15.373 43.144 15.373 43.144zM36.715 59.36c-4.652 1.693-9.079-0.948-11.252-3.675 5.124 0.562 8.35-0.261 9.647-0.732 1.297-0.475 4.298-1.917 7.861-5.64C43.059 52.8 41.364 57.668 36.715 59.36zM33.775 36.816c-0.337-1.022 0.891-3.179 3.185-4.055 2.293-0.877 3.116-0.486 5.678 0.46C42.639 33.221 38.172 36.496 33.775 36.816z" data-fill-palette-color="accent"></path></svg></g></svg></g></svg></g><defs></defs></svg><rect width="395.52" height="98.11301960858874" fill="none" stroke="none" visibility="hidden"></rect></g></svg></g></svg>